# xmcd
# Copyright (C) 1995-1998 Ti Kan
#
# Track frame offsets:
#       150
#       85476
#       182057
#
# Disc length: 3609 seconds
#
# Revision: 0
# Processed by: cddbd v1.5.1PL0 Copyright (c) Steve Scherf et al.
# Submitted via: CD-Transfer v1.0
#
DISCID=1f0e1703
DTITLE=Goldies Sendung - 
DYEAR=1900
DGENRE=
TTITLE0=musigparade 21.08.05-1
TTITLE1=musigparade 21.08.05-2
TTITLE2=musigparade 21.08.05-3
EXTD=
EXTT0=
EXTT1=
EXTT2=
PLAYORDER=
